<svg xmlns="http://www.w3.org/2000/svg" width="13.362" height="13.362" viewBox="0 0 13.362 13.362">
  <path id="Icon_ionic-ios-checkmark-circle" data-name="Icon ionic-ios-checkmark-circle" d="M10.056,3.375a6.681,6.681,0,1,0,6.681,6.681A6.68,6.68,0,0,0,10.056,3.375Zm3.421,4.834L9.182,12.523h0a.58.58,0,0,1-.373.177.562.562,0,0,1-.376-.183l-1.8-1.8a.128.128,0,0,1,0-.183L7.2,9.963a.124.124,0,0,1,.18,0L8.81,11.389l3.919-3.948a.127.127,0,0,1,.09-.039h0a.117.117,0,0,1,.09.039l.562.581A.127.127,0,0,1,13.477,8.209Z" transform="translate(-3.375 -3.375)" fill="#44bba4"/>
</svg>
