<svg xmlns="http://www.w3.org/2000/svg" width="130.3" height="20.06" viewBox="0 0 130.3 20.06">
  <path id="Path_5" data-name="Path 5" d="M6.84-12.28H11l.18-1.5H.8v1.5H5.1V0H6.84Zm11.18,1.52c-2.96,0-4.56,2.26-4.56,5.5C13.46-1.94,15.04.22,18,.22c2.94,0,4.54-2.26,4.54-5.5C22.54-8.6,20.98-10.76,18.02-10.76Zm0,1.38c1.8,0,2.7,1.32,2.7,4.1,0,2.82-.9,4.12-2.72,4.12s-2.72-1.3-2.72-4.1S16.2-9.38,18.02-9.38Zm15.04-1.46A2.819,2.819,0,0,0,30.74-9.5a1.726,1.726,0,0,0-1.8-1.34,2.714,2.714,0,0,0-2.26,1.42l-.16-1.14H24.84V0h2V-8.04A1.93,1.93,0,0,1,28.4-9.1c.62,0,.7.46.7,1.56V0h1.82V-8.04A1.956,1.956,0,0,1,32.48-9.1c.62,0,.7.46.7,1.56V0h1.98V-7.84C35.16-10.18,34.26-10.84,33.06-10.84Zm9.88,0A3.794,3.794,0,0,0,39.86-9.2l-.14-1.36H37.78V4.32l2.24-.26V-.9A3.385,3.385,0,0,0,42.7.26c2.68,0,4.08-2.34,4.08-5.56C46.78-8.66,45.72-10.84,42.94-10.84Zm-.62,1.72c1.4,0,2.1,1.12,2.1,3.84,0,2.64-.8,3.8-2.32,3.8a2.429,2.429,0,0,1-2.08-1.18V-7.6A2.848,2.848,0,0,1,42.32-9.12Zm9.76-5.94-2.24.26V0h2.24Zm7,4.5h-2.6L52.24-5.78,56.78,0h2.74l-4.7-5.84ZM66-15.74a1.387,1.387,0,0,0-1.46,1.42A1.371,1.371,0,0,0,66-12.92a1.382,1.382,0,0,0,1.46-1.4A1.4,1.4,0,0,0,66-15.74Zm1.54,5.18H62.26v1.64H65.3v7.28H62.16V0h8.26V-1.64H67.54ZM73.78,0h2.24V-7.58A3.22,3.22,0,0,1,78.5-9.12c1.28,0,1.5.7,1.5,2.54V0h2.24V-7.7c0-1.98-.98-3.14-2.94-3.14a4.416,4.416,0,0,0-3.42,1.66l-.16-1.38H73.78ZM89.6-1.16A5.006,5.006,0,0,1,86.42-2.3l-.94,1.1A6.035,6.035,0,0,0,89.6.22c2.24,0,4.42-.88,4.42-3.14,0-1.96-1.36-2.68-3.42-3.24-2.12-.58-2.78-.9-2.78-1.86,0-.8.6-1.38,2.28-1.38a5,5,0,0,1,3.04.96L93.9-9.6a6.442,6.442,0,0,0-3.84-1.16c-2.38,0-4,1.12-4,2.88,0,1.84,1.42,2.5,3.6,3.04,2.24.56,2.54,1.06,2.54,2C92.2-1.82,91.22-1.16,89.6-1.16Zm17.62-1.4L104.8-3.8a2.709,2.709,0,0,1-2.42,1.86c-1.6,0-2.64-.9-2.64-5.02,0-4.1,1.04-5,2.64-5a2.693,2.693,0,0,1,2.42,1.8l2.32-1.28a4.815,4.815,0,0,0-4.74-2.68c-3.2,0-5.36,1.52-5.36,7.16,0,5.66,2.16,7.18,5.36,7.18A4.986,4.986,0,0,0,107.22-2.56ZM119.46,0l-.76-14h-2.98l-1.6,7.32L114-5.28l-.12-1.4L112.28-14H109.3l-.76,14h2.62l.14-10.46.16,1.48,1.46,7.44h2.16l1.46-7.42.16-1.5L116.84,0ZM126-8.46c-1.06-.38-1.94-1.02-1.94-2.02,0-1.14,1.08-1.48,2.22-1.48a2.549,2.549,0,0,1,2.46,1.66l2.16-1.14a4.691,4.691,0,0,0-4.62-2.68c-2.42,0-4.96.86-4.96,3.6,0,3,3.02,3.98,4.42,4.46,1.32.46,2.64.92,2.64,2.24,0,1.42-1.18,1.88-2.52,1.88a3,3,0,0,1-2.9-1.7l-2.3,1.16c.9,1.86,2.76,2.7,5.2,2.7,2.68,0,5.24-1,5.24-4.08C131.1-7.04,127.68-7.86,126-8.46Z" transform="translate(-0.8 15.74)" fill="#f0f0f0"/>
</svg>
